<mxfile host="app.diagrams.net" modified="2024-01-24T20:21:31.002Z" agent="Mozilla/5.0 (Windows NT 10.0; Win64; x64) AppleWebKit/537.36 (KHTML, like Gecko) Chrome/120.0.0.0 Safari/537.36" etag="sw5tMNzLQ6PKxufXhcgB" version="23.0.0" type="device">
  <diagram name="PÃ¡gina-1" id="n137hvn3CUOxByyT4Ogp">
    <mxGraphModel dx="2440" dy="1292" grid="1" gridSize="10" guides="1" tooltips="1" connect="1" arrows="1" fold="1" page="1" pageScale="1" pageWidth="827" pageHeight="1169" math="0" shadow="0">
      <root>
        <mxCell id="0" />
        <mxCell id="1" parent="0" />
        <mxCell id="CmFpEo7CQPoFzctiDzxt-2" value="AWS Cloud" style="points=[[0,0],[0.25,0],[0.5,0],[0.75,0],[1,0],[1,0.25],[1,0.5],[1,0.75],[1,1],[0.75,1],[0.5,1],[0.25,1],[0,1],[0,0.75],[0,0.5],[0,0.25]];outlineConnect=0;gradientColor=none;html=1;whiteSpace=wrap;fontSize=12;fontStyle=0;container=1;pointerEvents=0;collapsible=0;recursiveResize=0;shape=mxgraph.aws4.group;grIcon=mxgraph.aws4.group_aws_cloud_alt;strokeColor=#232F3E;fillColor=none;verticalAlign=top;align=left;spacingLeft=30;fontColor=#232F3E;dashed=0;" vertex="1" parent="1">
          <mxGeometry x="80" y="240" width="680" height="800" as="geometry" />
        </mxCell>
        <mxCell id="CmFpEo7CQPoFzctiDzxt-3" value="Region&amp;nbsp;- US East (N. Virginia) (us-east-1)" style="points=[[0,0],[0.25,0],[0.5,0],[0.75,0],[1,0],[1,0.25],[1,0.5],[1,0.75],[1,1],[0.75,1],[0.5,1],[0.25,1],[0,1],[0,0.75],[0,0.5],[0,0.25]];outlineConnect=0;gradientColor=none;html=1;whiteSpace=wrap;fontSize=12;fontStyle=0;container=1;pointerEvents=0;collapsible=0;recursiveResize=0;shape=mxgraph.aws4.group;grIcon=mxgraph.aws4.group_region;strokeColor=#00A4A6;fillColor=none;verticalAlign=top;align=left;spacingLeft=30;fontColor=#147EBA;dashed=1;" vertex="1" parent="CmFpEo7CQPoFzctiDzxt-2">
          <mxGeometry x="80" y="80" width="520" height="640" as="geometry" />
        </mxCell>
        <mxCell id="CmFpEo7CQPoFzctiDzxt-10" value="AWS Account" style="points=[[0,0],[0.25,0],[0.5,0],[0.75,0],[1,0],[1,0.25],[1,0.5],[1,0.75],[1,1],[0.75,1],[0.5,1],[0.25,1],[0,1],[0,0.75],[0,0.5],[0,0.25]];outlineConnect=0;gradientColor=none;html=1;whiteSpace=wrap;fontSize=12;fontStyle=0;container=1;pointerEvents=0;collapsible=0;recursiveResize=0;shape=mxgraph.aws4.group;grIcon=mxgraph.aws4.group_account;strokeColor=#CD2264;fillColor=none;verticalAlign=top;align=left;spacingLeft=30;fontColor=#CD2264;dashed=0;" vertex="1" parent="CmFpEo7CQPoFzctiDzxt-2">
          <mxGeometry x="40" y="40" width="600" height="720" as="geometry" />
        </mxCell>
        <mxCell id="CmFpEo7CQPoFzctiDzxt-5" value="Amazon Elastic Load Balancing (ELB)" style="sketch=0;points=[[0,0,0],[0.25,0,0],[0.5,0,0],[0.75,0,0],[1,0,0],[0,1,0],[0.25,1,0],[0.5,1,0],[0.75,1,0],[1,1,0],[0,0.25,0],[0,0.5,0],[0,0.75,0],[1,0.25,0],[1,0.5,0],[1,0.75,0]];outlineConnect=0;fontColor=#232F3E;fillColor=#8C4FFF;strokeColor=#ffffff;dashed=0;verticalLabelPosition=bottom;verticalAlign=top;align=center;html=1;fontSize=12;fontStyle=0;aspect=fixed;shape=mxgraph.aws4.resourceIcon;resIcon=mxgraph.aws4.elastic_load_balancing;" vertex="1" parent="CmFpEo7CQPoFzctiDzxt-10">
          <mxGeometry x="141" y="120" width="78" height="78" as="geometry" />
        </mxCell>
        <mxCell id="CmFpEo7CQPoFzctiDzxt-4" value="Amazon Elastic Kubernetes Service (EKS)" style="sketch=0;points=[[0,0,0],[0.25,0,0],[0.5,0,0],[0.75,0,0],[1,0,0],[0,1,0],[0.25,1,0],[0.5,1,0],[0.75,1,0],[1,1,0],[0,0.25,0],[0,0.5,0],[0,0.75,0],[1,0.25,0],[1,0.5,0],[1,0.75,0]];outlineConnect=0;fontColor=#232F3E;fillColor=#ED7100;strokeColor=#ffffff;dashed=0;verticalLabelPosition=bottom;verticalAlign=top;align=center;html=1;fontSize=12;fontStyle=0;aspect=fixed;shape=mxgraph.aws4.resourceIcon;resIcon=mxgraph.aws4.eks_cloud;" vertex="1" parent="CmFpEo7CQPoFzctiDzxt-10">
          <mxGeometry x="141" y="330" width="78" height="78" as="geometry" />
        </mxCell>
        <mxCell id="CmFpEo7CQPoFzctiDzxt-15" style="edgeStyle=orthogonalEdgeStyle;rounded=0;orthogonalLoop=1;jettySize=auto;html=1;entryX=0.5;entryY=0;entryDx=0;entryDy=0;" edge="1" parent="CmFpEo7CQPoFzctiDzxt-10" source="CmFpEo7CQPoFzctiDzxt-4">
          <mxGeometry relative="1" as="geometry">
            <mxPoint x="180" y="540" as="targetPoint" />
          </mxGeometry>
        </mxCell>
        <mxCell id="CmFpEo7CQPoFzctiDzxt-6" style="edgeStyle=orthogonalEdgeStyle;rounded=0;orthogonalLoop=1;jettySize=auto;html=1;" edge="1" parent="CmFpEo7CQPoFzctiDzxt-10" source="CmFpEo7CQPoFzctiDzxt-4" target="CmFpEo7CQPoFzctiDzxt-5">
          <mxGeometry relative="1" as="geometry" />
        </mxCell>
        <mxCell id="CmFpEo7CQPoFzctiDzxt-1" value="Amazon RDS para PostgreSQL" style="sketch=0;points=[[0,0,0],[0.25,0,0],[0.5,0,0],[0.75,0,0],[1,0,0],[0,1,0],[0.25,1,0],[0.5,1,0],[0.75,1,0],[1,1,0],[0,0.25,0],[0,0.5,0],[0,0.75,0],[1,0.25,0],[1,0.5,0],[1,0.75,0]];outlineConnect=0;fontColor=#232F3E;fillColor=#C925D1;strokeColor=#ffffff;dashed=0;verticalLabelPosition=bottom;verticalAlign=top;align=center;html=1;fontSize=12;fontStyle=0;aspect=fixed;shape=mxgraph.aws4.resourceIcon;resIcon=mxgraph.aws4.rds;" vertex="1" parent="CmFpEo7CQPoFzctiDzxt-10">
          <mxGeometry x="400" y="330" width="78" height="78" as="geometry" />
        </mxCell>
        <mxCell id="CmFpEo7CQPoFzctiDzxt-7" style="edgeStyle=orthogonalEdgeStyle;rounded=0;orthogonalLoop=1;jettySize=auto;html=1;" edge="1" parent="CmFpEo7CQPoFzctiDzxt-10" source="CmFpEo7CQPoFzctiDzxt-4" target="CmFpEo7CQPoFzctiDzxt-1">
          <mxGeometry relative="1" as="geometry" />
        </mxCell>
        <mxCell id="CmFpEo7CQPoFzctiDzxt-16" value="Amazon EC2 Auto Scaling" style="sketch=0;points=[[0,0,0],[0.25,0,0],[0.5,0,0],[0.75,0,0],[1,0,0],[0,1,0],[0.25,1,0],[0.5,1,0],[0.75,1,0],[1,1,0],[0,0.25,0],[0,0.5,0],[0,0.75,0],[1,0.25,0],[1,0.5,0],[1,0.75,0]];outlineConnect=0;fontColor=#232F3E;fillColor=#ED7100;strokeColor=#ffffff;dashed=0;verticalLabelPosition=bottom;verticalAlign=top;align=center;html=1;fontSize=12;fontStyle=0;aspect=fixed;shape=mxgraph.aws4.resourceIcon;resIcon=mxgraph.aws4.auto_scaling2;" vertex="1" parent="CmFpEo7CQPoFzctiDzxt-10">
          <mxGeometry x="141" y="540" width="78" height="78" as="geometry" />
        </mxCell>
        <mxCell id="CmFpEo7CQPoFzctiDzxt-9" style="edgeStyle=orthogonalEdgeStyle;rounded=0;orthogonalLoop=1;jettySize=auto;html=1;" edge="1" parent="1" source="CmFpEo7CQPoFzctiDzxt-8" target="CmFpEo7CQPoFzctiDzxt-5">
          <mxGeometry relative="1" as="geometry" />
        </mxCell>
        <mxCell id="CmFpEo7CQPoFzctiDzxt-8" value="Public Internet" style="sketch=0;outlineConnect=0;fontColor=#232F3E;gradientColor=none;fillColor=#232F3D;strokeColor=none;dashed=0;verticalLabelPosition=bottom;verticalAlign=top;align=center;html=1;fontSize=12;fontStyle=0;aspect=fixed;pointerEvents=1;shape=mxgraph.aws4.globe;" vertex="1" parent="1">
          <mxGeometry x="261" y="40" width="78" height="78" as="geometry" />
        </mxCell>
      </root>
    </mxGraphModel>
  </diagram>
</mxfile>
